<svg width="24" height="24" viewBox="0 0 24 24" fill="none" xmlns="http://www.w3.org/2000/svg">
<path d="M3.23077 18.5592C5.50769 18.5592 7.32308 17.5931 8.67692 15.6609C8.67692 15.5253 8.6 15.4066 8.44615 15.305L7.56923 13.3727C7.16923 14.288 6.57692 15.0253 5.79231 15.5846C5.00769 16.1439 4.15385 16.4236 3.23077 16.4236H0.969231C0.723077 16.4236 0.5 16.5338 0.3 16.7541C0.1 16.9744 0 17.2202 0 17.4914C0 17.7626 0.1 18.0083 0.3 18.2287C0.5 18.449 0.723077 18.5592 0.969231 18.5592H3.23077ZM20.4 0.457495C19.9077 -0.0170816 19.4462 -0.0170816 19.0154 0.457495C18.5538 0.965969 18.5538 1.47444 19.0154 1.98292L20.2615 3.40665H16.4308C14.1846 3.40665 12.3846 4.37275 11.0308 6.30495C11.0308 6.40665 11.0923 6.52529 11.2154 6.66088L12.0923 8.59309C12.4923 7.67783 13.0846 6.94054 13.8692 6.38122C14.6538 5.8219 15.5077 5.54224 16.4308 5.54224H20.2615L19.0154 6.96597C18.5538 7.47444 18.5538 7.98292 19.0154 8.49139C19.2 8.69478 19.4308 8.79648 19.7077 8.79648C19.9231 8.79648 20.1538 8.69478 20.4 8.49139L23.3538 5.23715C23.7538 4.72868 23.7538 4.22021 23.3538 3.71173L20.4 0.457495ZM20.4 13.4744C19.9077 12.9999 19.4462 12.9999 19.0154 13.4744C18.5538 13.9829 18.5538 14.4914 19.0154 14.9999L20.2615 16.4236H16.4308C15.5077 16.4236 14.6462 16.1439 13.8462 15.5846C13.0462 15.0253 12.4308 14.288 12 13.3727L10.9385 10.9829L9.83077 8.59309L9.36923 7.62699C8.81538 6.33885 7.98462 5.31343 6.87692 4.55071C5.76923 3.788 4.55385 3.40665 3.23077 3.40665H0.969231C0.723077 3.40665 0.5 3.51682 0.3 3.73716C0.1 3.95749 0 4.20326 0 4.47444C0 4.74563 0.1 4.99139 0.3 5.21173C0.5 5.43207 0.723077 5.54224 0.969231 5.54224H3.23077C5.2 5.54224 6.67692 6.55919 7.66154 8.59309L8.76923 10.9829L9.83077 13.3727L10.3385 14.3388C10.9538 15.627 11.8077 16.6524 12.9 17.4151C13.9923 18.1778 15.2 18.5592 16.5231 18.5592H20.4L19.1077 19.9829C18.6462 20.4914 18.6462 20.9999 19.1077 21.5083C19.2923 21.7117 19.5231 21.8134 19.8 21.8134C20.0462 21.8134 20.2769 21.7117 20.4923 21.5083L23.4462 18.2541C23.8462 17.7456 23.8462 17.2372 23.4462 16.7287L20.4 13.4744Z" fill="#FF7506"/>
</svg>
